<svg xmlns="http://www.w3.org/2000/svg" viewBox="0 0 512 512" width="512" height="512">
  <defs>
    <linearGradient id="bg" x1="0" y1="0" x2="1" y2="1">
      <stop offset="0%" stop-color="#6366f1"/>
      <stop offset="100%" stop-color="#8b5cf6"/>
    </linearGradient>
  </defs>
  <rect width="512" height="512" rx="96" fill="url(#bg)"/>
  <g transform="translate(56,56) scale(0.78125)" fill="white">
    <path d="M256,0L28.44,117.55v276.901L256,512l227.56-117.55v-276.9L256,0z M256,33.776l179.864,92.91l-75.078,38.783
      c-25.423-29.386-62.97-48.009-104.786-48.009c-41.815,0-79.363,18.623-104.786,48.009l-75.078-38.783L256,33.776z M364.532,256
      c0,54.754-40.759,100.159-93.528,107.489V245.623l80.312-41.486C359.739,219.555,364.532,237.228,364.532,256z M240.996,470.475
      L58.448,376.176V151.325l75.575,39.04c-10.561,19.547-16.563,41.902-16.563,65.636c0,71.322,54.176,130.221,123.536,137.725
      V470.475z M240.996,363.489c-52.768-7.33-93.528-52.735-93.528-107.489c0-18.772,4.792-36.445,13.216-51.863l80.312,41.486
      V363.489z M178.85,179.745c19.687-19.915,47-32.277,77.15-32.277c30.15,0,57.463,12.361,77.15,32.277L256,219.598L178.85,179.745z
      M453.552,376.175l-182.548,94.299v-76.749C340.364,386.221,394.54,327.322,394.54,256c0-23.732-6.002-46.089-16.563-65.636
      l75.575-39.04V376.175z"/>
  </g>
</svg>
